P3
#LEARNING IMAGE PROCESSING by GUSTAVO & EDWIN AT UNIVALLE
15 15
255
255 0 0    255 0 0    255 0 0    255 0 0    255 0 0    0 255 0    0 255 0    0 255 0    0 255 0    0 255 0    0 0 255    0 0 255    0 0 255    0 0 255    0 0 255    
255 0 0    255 0 0    255 0 0    255 0 0    255 0 0    0 255 0    0 255 0    0 255 0    0 255 0    0 255 0    0 0 255    0 0 255    0 0 255    0 0 255    0 0 255    
255 0 0    255 0 0    255 0 0    255 0 0    255 0 0    0 255 0    0 255 0    0 255 0    0 255 0    0 255 0    0 0 255    0 0 255    0 0 255    0 0 255    0 0 255    
255 0 0    255 0 0    255 0 0    255 0 0    255 0 0    0 255 0    0 255 0    0 255 0    0 255 0    0 255 0    0 0 255    0 0 255    0 0 255    0 0 255    0 0 255    
255 0 0    255 0 0    255 0 0    255 0 0    255 0 0    0 255 0    0 255 0    0 255 0    0 255 0    0 255 0    0 0 255    0 0 255    0 0 255    0 0 255    0 0 255    
255 0 0    255 0 0    255 0 0    255 0 0    255 0 0    0 255 0    0 255 0    0 255 0    0 255 0    0 255 0    0 0 255    0 0 255    0 0 255    0 0 255    0 0 255    
255 0 0    255 0 0    255 0 0    255 0 0    255 0 0    0 255 0    0 255 0    0 255 0    0 255 0    0 255 0    0 0 255    0 0 255    0 0 255    0 0 255    0 0 255    
255 0 0    255 0 0    255 0 0    255 0 0    255 0 0    0 255 0    0 255 0    0 255 0    0 255 0    0 255 0    0 0 255    0 0 255    0 0 255    0 0 255    0 0 255    
255 0 0    255 0 0    255 0 0    255 0 0    255 0 0    0 255 0    0 255 0    0 255 0    0 255 0    0 255 0    0 0 255    0 0 255    0 0 255    0 0 255    0 0 255    
255 0 0    255 0 0    255 0 0    255 0 0    255 0 0    0 255 0    0 255 0    0 255 0    0 255 0    0 255 0    0 0 255    0 0 255    0 0 255    0 0 255    0 0 255    
255 0 0    255 0 0    255 0 0    255 0 0    255 0 0    0 255 0    0 255 0    0 255 0    0 255 0    0 255 0    0 0 255    0 0 255    0 0 255    0 0 255    0 0 255    
255 0 0    255 0 0    255 0 0    255 0 0    255 0 0    0 255 0    0 255 0    0 255 0    0 255 0    0 255 0    0 0 255    0 0 255    0 0 255    0 0 255    0 0 255    
255 0 0    255 0 0    255 0 0    255 0 0    255 0 0    0 255 0    0 255 0    0 255 0    0 255 0    0 255 0    0 0 255    0 0 255    0 0 255    0 0 255    0 0 255    
255 0 0    255 0 0    255 0 0    255 0 0    255 0 0    0 255 0    0 255 0    0 255 0    0 255 0    0 255 0    0 0 255    0 0 255    0 0 255    0 0 255    0 0 255    
254 0 0    255 0 0    255 0 0    255 0 0    255 0 0    0 255 0    0 255 0    0 255 0    0 255 0    0 255 0    0 0 255    0 0 255    0 0 255    0 0 255    0 0 255    
